%TF.GenerationSoftware,KiCad,Pcbnew,(5.1.8)-1*%
%TF.CreationDate,2021-01-29T11:55:22+09:00*%
%TF.ProjectId,REF_TWELITE_REVF_ANT,5245465f-5457-4454-9c49-54455f524556,rev?*%
%TF.SameCoordinates,Original*%
%TF.FileFunction,Copper,L2,Bot*%
%TF.FilePolarity,Positive*%
%FSLAX46Y46*%
G04 Gerber Fmt 4.6, Leading zero omitted, Abs format (unit mm)*
G04 Created by KiCad (PCBNEW (5.1.8)-1) date 2021-01-29 11:55:22*
%MOMM*%
%LPD*%
G01*
G04 APERTURE LIST*
%TA.AperFunction,NonConductor*%
%ADD10C,0.100000*%
%TD*%
%TA.AperFunction,EtchedComponent*%
%ADD11C,0.100000*%
%TD*%
%TA.AperFunction,ComponentPad*%
%ADD12R,1.000000X1.000000*%
%TD*%
%TA.AperFunction,ComponentPad*%
%ADD13C,0.900000*%
%TD*%
%TA.AperFunction,ComponentPad*%
%ADD14O,1.700000X1.700000*%
%TD*%
%TA.AperFunction,ComponentPad*%
%ADD15R,1.700000X1.700000*%
%TD*%
%TA.AperFunction,ViaPad*%
%ADD16C,0.800000*%
%TD*%
%TA.AperFunction,Conductor*%
%ADD17C,0.250000*%
%TD*%
%TA.AperFunction,Conductor*%
%ADD18C,0.400000*%
%TD*%
G04 APERTURE END LIST*
D10*
G36*
X122809000Y-86995000D02*
G01*
X104775000Y-86995000D01*
X104775000Y-72771000D01*
X104902000Y-72480000D01*
X104902000Y-72072500D01*
X104720000Y-71690000D01*
X104090000Y-71340000D01*
X104090000Y-67680000D01*
X104074613Y-64888608D01*
X122809000Y-64888608D01*
X122809000Y-86995000D01*
G37*
G36*
X106807000Y-87757000D02*
G01*
X105156000Y-87757000D01*
X104775000Y-86995000D01*
X107188000Y-86995000D01*
X106807000Y-87757000D01*
G37*
D11*
%TO.C,U1*%
G36*
X111574605Y-61388602D02*
G01*
X113574602Y-61388602D01*
X113574602Y-58388608D01*
X117574598Y-58388608D01*
X117574598Y-61388602D01*
X119574597Y-61388602D01*
X119574597Y-58388608D01*
X120574613Y-58388608D01*
X120574613Y-62388605D01*
X116574617Y-62388605D01*
X116574617Y-59388603D01*
X114574619Y-59388603D01*
X114574603Y-62388606D01*
X110574588Y-62388605D01*
X110574588Y-59388603D01*
X105574610Y-59388603D01*
X105574610Y-64888606D01*
X104074603Y-64888606D01*
X104074603Y-58388608D01*
X111574605Y-58388608D01*
X111574605Y-61388602D01*
G37*
G36*
X120576103Y-64888606D02*
G01*
X104074603Y-64888606D01*
X104074603Y-67598606D01*
X120574613Y-67598606D01*
X120576103Y-64883006D01*
X120576103Y-64888606D01*
G37*
%TD*%
D12*
%TO.P,U1,*%
%TO.N,*%
X108574603Y-58888606D03*
D13*
%TO.P,U1,28*%
%TO.N,/TWE_GND*%
X113544603Y-66118606D03*
%TO.P,U1,30*%
X111004603Y-66118606D03*
%TD*%
D14*
%TO.P,J2,7*%
%TO.N,/SET*%
X121221500Y-88341200D03*
%TO.P,J2,6*%
%TO.N,/VCC*%
X118681500Y-88341200D03*
%TO.P,J2,5*%
%TO.N,/RST*%
X116141500Y-88341200D03*
%TO.P,J2,4*%
%TO.N,/RXD*%
X113601500Y-88341200D03*
%TO.P,J2,3*%
%TO.N,/PRG*%
X111061500Y-88341200D03*
%TO.P,J2,2*%
%TO.N,/TXD*%
X108521500Y-88341200D03*
D15*
%TO.P,J2,1*%
%TO.N,/TWE_GND*%
X105981500Y-88341200D03*
%TD*%
D16*
%TO.N,/RST*%
X122428000Y-89408000D03*
%TO.N,/PRG*%
X104216200Y-72207120D03*
%TO.N,/TWE_GND*%
X121158000Y-74739500D03*
%TD*%
D17*
%TO.N,/RST*%
X122428000Y-89662000D02*
X122682000Y-89408000D01*
X117462300Y-89662000D02*
X122428000Y-89662000D01*
X116141500Y-88341200D02*
X117462300Y-89662000D01*
D18*
%TO.N,/PRG*%
X104013000Y-72199500D02*
X104013000Y-72199500D01*
D17*
X104216200Y-72402700D02*
X104013000Y-72199500D01*
X104216200Y-88995902D02*
X104216200Y-72402700D01*
X105040288Y-89819990D02*
X104216200Y-88995902D01*
X109570010Y-89819990D02*
X105040288Y-89819990D01*
X111048800Y-88341200D02*
X109570010Y-89819990D01*
X111061500Y-88341200D02*
X111048800Y-88341200D01*
D18*
%TO.N,/TWE_GND*%
X114313599Y-74738601D02*
X112205399Y-74738601D01*
X105981500Y-80962500D02*
X112205399Y-74738601D01*
X105981500Y-88341200D02*
X105981500Y-80962500D01*
X112204500Y-74739500D02*
X105981500Y-80962500D01*
X121158000Y-74739500D02*
X112204500Y-74739500D01*
%TD*%
M02*
