%TF.GenerationSoftware,KiCad,Pcbnew,(5.1.8)-1*%
%TF.CreationDate,2021-01-29T12:29:00+09:00*%
%TF.ProjectId,REF_TWELITE_SMA_CONN,5245465f-5457-4454-9c49-54455f534d41,rev?*%
%TF.SameCoordinates,Original*%
%TF.FileFunction,Copper,L2,Bot*%
%TF.FilePolarity,Positive*%
%FSLAX46Y46*%
G04 Gerber Fmt 4.6, Leading zero omitted, Abs format (unit mm)*
G04 Created by KiCad (PCBNEW (5.1.8)-1) date 2021-01-29 12:29:00*
%MOMM*%
%LPD*%
G01*
G04 APERTURE LIST*
%TA.AperFunction,NonConductor*%
%ADD10C,0.100000*%
%TD*%
%TA.AperFunction,EtchedComponent*%
%ADD11C,0.100000*%
%TD*%
%TA.AperFunction,EtchedComponent*%
%ADD12C,0.300000*%
%TD*%
%TA.AperFunction,ComponentPad*%
%ADD13C,1.300000*%
%TD*%
%TA.AperFunction,ComponentPad*%
%ADD14C,0.100000*%
%TD*%
%TA.AperFunction,ComponentPad*%
%ADD15O,1.700000X1.700000*%
%TD*%
%TA.AperFunction,ComponentPad*%
%ADD16R,1.700000X1.700000*%
%TD*%
%TA.AperFunction,ViaPad*%
%ADD17C,0.800000*%
%TD*%
%TA.AperFunction,Conductor*%
%ADD18C,0.250000*%
%TD*%
%TA.AperFunction,Conductor*%
%ADD19C,0.400000*%
%TD*%
G04 APERTURE END LIST*
D10*
G36*
X122809000Y-86868000D02*
G01*
X104775000Y-86868000D01*
X104775000Y-72771000D01*
X104902000Y-72517000D01*
X104902000Y-71755000D01*
X104775000Y-71501000D01*
X104775000Y-70810120D01*
X109537500Y-70810120D01*
X112268000Y-68262500D01*
X122809000Y-68262500D01*
X122809000Y-86868000D01*
G37*
G36*
X106807000Y-87757000D02*
G01*
X105156000Y-87757000D01*
X104775000Y-86868000D01*
X107188000Y-86868000D01*
X106807000Y-87757000D01*
G37*
D11*
%TO.C,U1*%
G36*
X112073825Y-47418602D02*
G01*
X112473825Y-47818602D01*
X113173825Y-47918602D01*
X113573825Y-47618602D01*
X113873825Y-47118602D01*
X113854575Y-47613584D01*
X113854575Y-63780463D01*
X111964576Y-65670463D01*
X110318825Y-65670463D01*
X109144697Y-66807788D01*
X108843825Y-66608602D01*
X108713825Y-66548602D01*
X108573825Y-66518602D01*
X108428825Y-66484981D01*
X108428825Y-65670463D01*
X110318825Y-63780463D01*
X111964576Y-63780463D01*
X111964576Y-47613584D01*
X111963825Y-47218602D01*
X112073825Y-47418602D01*
G37*
D12*
X111419576Y-49498240D02*
G75*
G03*
X111419576Y-49498240I-1050000J0D01*
G01*
X116499576Y-44418240D02*
G75*
G03*
X116499576Y-44418240I-1050000J0D01*
G01*
X111419576Y-44418240D02*
G75*
G03*
X111419576Y-44418240I-1050000J0D01*
G01*
X116499576Y-49498240D02*
G75*
G03*
X116499576Y-49498240I-1050000J0D01*
G01*
%TD*%
D13*
%TO.P,U1,*%
%TO.N,*%
X108573825Y-67118602D03*
%TA.AperFunction,ComponentPad*%
D14*
G36*
X116488211Y-49652307D02*
G01*
X116468109Y-49753369D01*
X116438197Y-49851974D01*
X116398765Y-49947173D01*
X116350191Y-50038048D01*
X116292944Y-50123724D01*
X116227575Y-50203377D01*
X116154713Y-50276239D01*
X116075060Y-50341608D01*
X115989384Y-50398855D01*
X115898509Y-50447429D01*
X115803310Y-50486861D01*
X115704705Y-50516773D01*
X115603643Y-50536875D01*
X115501097Y-50546975D01*
X115398055Y-50546975D01*
X115295509Y-50536875D01*
X115194447Y-50516773D01*
X115095842Y-50486861D01*
X115000643Y-50447429D01*
X114909768Y-50398855D01*
X114824092Y-50341608D01*
X114744439Y-50276239D01*
X114671577Y-50203377D01*
X114606208Y-50123724D01*
X114548961Y-50038048D01*
X114500387Y-49947173D01*
X114460955Y-49851974D01*
X114431043Y-49753369D01*
X114410941Y-49652307D01*
X114400841Y-49549761D01*
X114400841Y-49446719D01*
X114410941Y-49344173D01*
X114431043Y-49243111D01*
X114460955Y-49144506D01*
X114500387Y-49049307D01*
X114548961Y-48958432D01*
X114606208Y-48872756D01*
X114671577Y-48793103D01*
X114744439Y-48720241D01*
X114824092Y-48654872D01*
X114909768Y-48597625D01*
X115000643Y-48549051D01*
X115095842Y-48509619D01*
X115194447Y-48479707D01*
X115295509Y-48459605D01*
X115398055Y-48449505D01*
X115501097Y-48449505D01*
X115603643Y-48459605D01*
X115704705Y-48479707D01*
X115803310Y-48509619D01*
X115898509Y-48549051D01*
X115989384Y-48597625D01*
X116075060Y-48654872D01*
X116154713Y-48720241D01*
X116227575Y-48793103D01*
X116292944Y-48872756D01*
X116350191Y-48958432D01*
X116398765Y-49049307D01*
X116438197Y-49144506D01*
X116468109Y-49243111D01*
X116488211Y-49344173D01*
X116498311Y-49446719D01*
X116498311Y-49549761D01*
X116488211Y-49652307D01*
G37*
%TD.AperFunction*%
%TA.AperFunction,ComponentPad*%
G36*
X111408211Y-49652307D02*
G01*
X111388109Y-49753369D01*
X111358197Y-49851974D01*
X111318765Y-49947173D01*
X111270191Y-50038048D01*
X111212944Y-50123724D01*
X111147575Y-50203377D01*
X111074713Y-50276239D01*
X110995060Y-50341608D01*
X110909384Y-50398855D01*
X110818509Y-50447429D01*
X110723310Y-50486861D01*
X110624705Y-50516773D01*
X110523643Y-50536875D01*
X110421097Y-50546975D01*
X110318055Y-50546975D01*
X110215509Y-50536875D01*
X110114447Y-50516773D01*
X110015842Y-50486861D01*
X109920643Y-50447429D01*
X109829768Y-50398855D01*
X109744092Y-50341608D01*
X109664439Y-50276239D01*
X109591577Y-50203377D01*
X109526208Y-50123724D01*
X109468961Y-50038048D01*
X109420387Y-49947173D01*
X109380955Y-49851974D01*
X109351043Y-49753369D01*
X109330941Y-49652307D01*
X109320841Y-49549761D01*
X109320841Y-49446719D01*
X109330941Y-49344173D01*
X109351043Y-49243111D01*
X109380955Y-49144506D01*
X109420387Y-49049307D01*
X109468961Y-48958432D01*
X109526208Y-48872756D01*
X109591577Y-48793103D01*
X109664439Y-48720241D01*
X109744092Y-48654872D01*
X109829768Y-48597625D01*
X109920643Y-48549051D01*
X110015842Y-48509619D01*
X110114447Y-48479707D01*
X110215509Y-48459605D01*
X110318055Y-48449505D01*
X110421097Y-48449505D01*
X110523643Y-48459605D01*
X110624705Y-48479707D01*
X110723310Y-48509619D01*
X110818509Y-48549051D01*
X110909384Y-48597625D01*
X110995060Y-48654872D01*
X111074713Y-48720241D01*
X111147575Y-48793103D01*
X111212944Y-48872756D01*
X111270191Y-48958432D01*
X111318765Y-49049307D01*
X111358197Y-49144506D01*
X111388109Y-49243111D01*
X111408211Y-49344173D01*
X111418311Y-49446719D01*
X111418311Y-49549761D01*
X111408211Y-49652307D01*
G37*
%TD.AperFunction*%
%TA.AperFunction,ComponentPad*%
G36*
X111408211Y-44572307D02*
G01*
X111388109Y-44673369D01*
X111358197Y-44771974D01*
X111318765Y-44867173D01*
X111270191Y-44958048D01*
X111212944Y-45043724D01*
X111147575Y-45123377D01*
X111074713Y-45196239D01*
X110995060Y-45261608D01*
X110909384Y-45318855D01*
X110818509Y-45367429D01*
X110723310Y-45406861D01*
X110624705Y-45436773D01*
X110523643Y-45456875D01*
X110421097Y-45466975D01*
X110318055Y-45466975D01*
X110215509Y-45456875D01*
X110114447Y-45436773D01*
X110015842Y-45406861D01*
X109920643Y-45367429D01*
X109829768Y-45318855D01*
X109744092Y-45261608D01*
X109664439Y-45196239D01*
X109591577Y-45123377D01*
X109526208Y-45043724D01*
X109468961Y-44958048D01*
X109420387Y-44867173D01*
X109380955Y-44771974D01*
X109351043Y-44673369D01*
X109330941Y-44572307D01*
X109320841Y-44469761D01*
X109320841Y-44366719D01*
X109330941Y-44264173D01*
X109351043Y-44163111D01*
X109380955Y-44064506D01*
X109420387Y-43969307D01*
X109468961Y-43878432D01*
X109526208Y-43792756D01*
X109591577Y-43713103D01*
X109664439Y-43640241D01*
X109744092Y-43574872D01*
X109829768Y-43517625D01*
X109920643Y-43469051D01*
X110015842Y-43429619D01*
X110114447Y-43399707D01*
X110215509Y-43379605D01*
X110318055Y-43369505D01*
X110421097Y-43369505D01*
X110523643Y-43379605D01*
X110624705Y-43399707D01*
X110723310Y-43429619D01*
X110818509Y-43469051D01*
X110909384Y-43517625D01*
X110995060Y-43574872D01*
X111074713Y-43640241D01*
X111147575Y-43713103D01*
X111212944Y-43792756D01*
X111270191Y-43878432D01*
X111318765Y-43969307D01*
X111358197Y-44064506D01*
X111388109Y-44163111D01*
X111408211Y-44264173D01*
X111418311Y-44366719D01*
X111418311Y-44469761D01*
X111408211Y-44572307D01*
G37*
%TD.AperFunction*%
%TA.AperFunction,ComponentPad*%
G36*
X116488211Y-44572307D02*
G01*
X116468109Y-44673369D01*
X116438197Y-44771974D01*
X116398765Y-44867173D01*
X116350191Y-44958048D01*
X116292944Y-45043724D01*
X116227575Y-45123377D01*
X116154713Y-45196239D01*
X116075060Y-45261608D01*
X115989384Y-45318855D01*
X115898509Y-45367429D01*
X115803310Y-45406861D01*
X115704705Y-45436773D01*
X115603643Y-45456875D01*
X115501097Y-45466975D01*
X115398055Y-45466975D01*
X115295509Y-45456875D01*
X115194447Y-45436773D01*
X115095842Y-45406861D01*
X115000643Y-45367429D01*
X114909768Y-45318855D01*
X114824092Y-45261608D01*
X114744439Y-45196239D01*
X114671577Y-45123377D01*
X114606208Y-45043724D01*
X114548961Y-44958048D01*
X114500387Y-44867173D01*
X114460955Y-44771974D01*
X114431043Y-44673369D01*
X114410941Y-44572307D01*
X114400841Y-44469761D01*
X114400841Y-44366719D01*
X114410941Y-44264173D01*
X114431043Y-44163111D01*
X114460955Y-44064506D01*
X114500387Y-43969307D01*
X114548961Y-43878432D01*
X114606208Y-43792756D01*
X114671577Y-43713103D01*
X114744439Y-43640241D01*
X114824092Y-43574872D01*
X114909768Y-43517625D01*
X115000643Y-43469051D01*
X115095842Y-43429619D01*
X115194447Y-43399707D01*
X115295509Y-43379605D01*
X115398055Y-43369505D01*
X115501097Y-43369505D01*
X115603643Y-43379605D01*
X115704705Y-43399707D01*
X115803310Y-43429619D01*
X115898509Y-43469051D01*
X115989384Y-43517625D01*
X116075060Y-43574872D01*
X116154713Y-43640241D01*
X116227575Y-43713103D01*
X116292944Y-43792756D01*
X116350191Y-43878432D01*
X116398765Y-43969307D01*
X116438197Y-44064506D01*
X116468109Y-44163111D01*
X116488211Y-44264173D01*
X116498311Y-44366719D01*
X116498311Y-44469761D01*
X116488211Y-44572307D01*
G37*
%TD.AperFunction*%
%TA.AperFunction,ComponentPad*%
G36*
X113948211Y-47112307D02*
G01*
X113928109Y-47213369D01*
X113898197Y-47311974D01*
X113858765Y-47407173D01*
X113810191Y-47498048D01*
X113752944Y-47583724D01*
X113687575Y-47663377D01*
X113614713Y-47736239D01*
X113535060Y-47801608D01*
X113449384Y-47858855D01*
X113358509Y-47907429D01*
X113263310Y-47946861D01*
X113164705Y-47976773D01*
X113063643Y-47996875D01*
X112961097Y-48006975D01*
X112858055Y-48006975D01*
X112755509Y-47996875D01*
X112654447Y-47976773D01*
X112555842Y-47946861D01*
X112460643Y-47907429D01*
X112369768Y-47858855D01*
X112284092Y-47801608D01*
X112204439Y-47736239D01*
X112131577Y-47663377D01*
X112066208Y-47583724D01*
X112008961Y-47498048D01*
X111960387Y-47407173D01*
X111920955Y-47311974D01*
X111891043Y-47213369D01*
X111870941Y-47112307D01*
X111860841Y-47009761D01*
X111860841Y-46906719D01*
X111870941Y-46804173D01*
X111891043Y-46703111D01*
X111920955Y-46604506D01*
X111960387Y-46509307D01*
X112008961Y-46418432D01*
X112066208Y-46332756D01*
X112131577Y-46253103D01*
X112204439Y-46180241D01*
X112284092Y-46114872D01*
X112369768Y-46057625D01*
X112460643Y-46009051D01*
X112555842Y-45969619D01*
X112654447Y-45939707D01*
X112755509Y-45919605D01*
X112858055Y-45909505D01*
X112961097Y-45909505D01*
X113063643Y-45919605D01*
X113164705Y-45939707D01*
X113263310Y-45969619D01*
X113358509Y-46009051D01*
X113449384Y-46057625D01*
X113535060Y-46114872D01*
X113614713Y-46180241D01*
X113687575Y-46253103D01*
X113752944Y-46332756D01*
X113810191Y-46418432D01*
X113858765Y-46509307D01*
X113898197Y-46604506D01*
X113928109Y-46703111D01*
X113948211Y-46804173D01*
X113958311Y-46906719D01*
X113958311Y-47009761D01*
X113948211Y-47112307D01*
G37*
%TD.AperFunction*%
%TD*%
D15*
%TO.P,J2,7*%
%TO.N,/SET*%
X121221500Y-88341200D03*
%TO.P,J2,6*%
%TO.N,/VCC*%
X118681500Y-88341200D03*
%TO.P,J2,5*%
%TO.N,/RST*%
X116141500Y-88341200D03*
%TO.P,J2,4*%
%TO.N,/RXD*%
X113601500Y-88341200D03*
%TO.P,J2,3*%
%TO.N,/PRG*%
X111061500Y-88341200D03*
%TO.P,J2,2*%
%TO.N,/TXD*%
X108521500Y-88341200D03*
D16*
%TO.P,J2,1*%
%TO.N,/TWE_GND*%
X105981500Y-88341200D03*
%TD*%
D17*
%TO.N,/RST*%
X122409979Y-89389979D03*
%TO.N,/PRG*%
X104216200Y-72207120D03*
%TO.N,/TWE_GND*%
X121158000Y-74739500D03*
X112458500Y-69151500D03*
%TD*%
D18*
%TO.N,/RST*%
X122137958Y-89662000D02*
X122409979Y-89389979D01*
X117462300Y-89662000D02*
X122137958Y-89662000D01*
X116141500Y-88341200D02*
X117462300Y-89662000D01*
D19*
%TO.N,/PRG*%
X104013000Y-72199500D02*
X104013000Y-72199500D01*
D18*
X104216200Y-72402700D02*
X104013000Y-72199500D01*
X104216200Y-88995902D02*
X104216200Y-72402700D01*
X109728000Y-89662000D02*
X104882298Y-89662000D01*
X111048800Y-88341200D02*
X109728000Y-89662000D01*
X104882298Y-89662000D02*
X104216200Y-88995902D01*
X111061500Y-88341200D02*
X111048800Y-88341200D01*
D19*
%TO.N,/TWE_GND*%
X114313599Y-74738601D02*
X112205399Y-74738601D01*
X105981500Y-80962500D02*
X112205399Y-74738601D01*
X105981500Y-88341200D02*
X105981500Y-80962500D01*
X112204500Y-74739500D02*
X105981500Y-80962500D01*
X121158000Y-74739500D02*
X112204500Y-74739500D01*
%TD*%
M02*
