%TF.GenerationSoftware,KiCad,Pcbnew,(5.1.8)-1*%
%TF.CreationDate,2021-01-29T12:29:00+09:00*%
%TF.ProjectId,REF_TWELITE_SMA_CONN,5245465f-5457-4454-9c49-54455f534d41,rev?*%
%TF.SameCoordinates,Original*%
%TF.FileFunction,Legend,Top*%
%TF.FilePolarity,Positive*%
%FSLAX46Y46*%
G04 Gerber Fmt 4.6, Leading zero omitted, Abs format (unit mm)*
G04 Created by KiCad (PCBNEW (5.1.8)-1) date 2021-01-29 12:29:00*
%MOMM*%
%LPD*%
G01*
G04 APERTURE LIST*
%ADD10C,0.150000*%
%ADD11C,0.120000*%
%ADD12C,0.300000*%
G04 APERTURE END LIST*
D10*
X121110123Y-86751696D02*
X121244810Y-86684352D01*
X121413169Y-86515993D01*
X121446841Y-86414978D01*
X121446841Y-86347635D01*
X121413169Y-86246619D01*
X121345825Y-86179276D01*
X121244810Y-86145604D01*
X121177467Y-86145604D01*
X121076451Y-86179276D01*
X120908093Y-86280291D01*
X120807077Y-86313963D01*
X120739734Y-86313963D01*
X120638719Y-86280291D01*
X120571375Y-86212948D01*
X120537703Y-86111932D01*
X120537703Y-86044589D01*
X120571375Y-85943574D01*
X120739734Y-85775215D01*
X120874421Y-85707871D01*
X121480512Y-85707871D02*
X121716215Y-85472169D01*
X122187619Y-85741543D02*
X121850902Y-86078261D01*
X121143795Y-85371154D01*
X121480512Y-85034436D01*
X121682543Y-84832406D02*
X122086604Y-84428345D01*
X122591680Y-85337482D02*
X121884574Y-84630375D01*
X117821365Y-86331383D02*
X118764174Y-86802788D01*
X118292770Y-85859979D01*
X119572296Y-85859979D02*
X119572296Y-85927322D01*
X119504953Y-86062009D01*
X119437609Y-86129353D01*
X119302922Y-86196696D01*
X119168235Y-86196696D01*
X119067220Y-86163025D01*
X118898861Y-86062009D01*
X118797846Y-85960994D01*
X118696831Y-85792635D01*
X118663159Y-85691620D01*
X118663159Y-85556933D01*
X118730503Y-85422246D01*
X118797846Y-85354903D01*
X118932533Y-85287559D01*
X118999877Y-85287559D01*
X120279403Y-85152872D02*
X120279403Y-85220216D01*
X120212060Y-85354903D01*
X120144716Y-85422246D01*
X120010029Y-85489590D01*
X119875342Y-85489590D01*
X119774327Y-85455918D01*
X119605968Y-85354903D01*
X119504953Y-85253887D01*
X119403938Y-85085529D01*
X119370266Y-84984513D01*
X119370266Y-84849826D01*
X119437609Y-84715139D01*
X119504953Y-84647796D01*
X119639640Y-84580452D01*
X119706983Y-84580452D01*
X116569456Y-86419406D02*
X115997036Y-86318391D01*
X116165395Y-86823467D02*
X115458288Y-86116361D01*
X115727662Y-85846987D01*
X115828677Y-85813315D01*
X115896021Y-85813315D01*
X115997036Y-85846987D01*
X116098051Y-85948002D01*
X116131723Y-86049017D01*
X116131723Y-86116361D01*
X116098051Y-86217376D01*
X115828677Y-86486750D01*
X116805158Y-86116361D02*
X116939845Y-86049017D01*
X117108204Y-85880658D01*
X117141876Y-85779643D01*
X117141876Y-85712299D01*
X117108204Y-85611284D01*
X117040861Y-85543941D01*
X116939845Y-85510269D01*
X116872502Y-85510269D01*
X116771487Y-85543941D01*
X116603128Y-85644956D01*
X116502112Y-85678628D01*
X116434769Y-85678628D01*
X116333754Y-85644956D01*
X116266410Y-85577612D01*
X116232738Y-85476597D01*
X116232738Y-85409254D01*
X116266410Y-85308238D01*
X116434769Y-85139880D01*
X116569456Y-85072536D01*
X116737815Y-84836834D02*
X117141876Y-84432773D01*
X117646952Y-85341910D02*
X116939845Y-84634803D01*
X114059577Y-86401986D02*
X113487157Y-86300970D01*
X113655516Y-86806047D02*
X112948409Y-86098940D01*
X113217783Y-85829566D01*
X113318798Y-85795894D01*
X113386142Y-85795894D01*
X113487157Y-85829566D01*
X113588172Y-85930581D01*
X113621844Y-86031596D01*
X113621844Y-86098940D01*
X113588172Y-86199955D01*
X113318798Y-86469329D01*
X113588172Y-85459177D02*
X114766683Y-85694879D01*
X114059577Y-84987772D02*
X114295279Y-86166283D01*
X115036057Y-85425505D02*
X114328951Y-84718398D01*
X114497309Y-84550039D01*
X114631996Y-84482696D01*
X114766683Y-84482696D01*
X114867699Y-84516368D01*
X115036057Y-84617383D01*
X115137073Y-84718398D01*
X115238088Y-84886757D01*
X115271760Y-84987772D01*
X115271760Y-85122459D01*
X115204416Y-85257146D01*
X115036057Y-85425505D01*
X111149480Y-86759383D02*
X110442373Y-86052276D01*
X110711747Y-85782902D01*
X110812762Y-85749230D01*
X110880106Y-85749230D01*
X110981121Y-85782902D01*
X111082136Y-85883917D01*
X111115808Y-85984932D01*
X111115808Y-86052276D01*
X111082136Y-86153291D01*
X110812762Y-86422665D01*
X112260648Y-85648215D02*
X111688228Y-85547200D01*
X111856587Y-86052276D02*
X111149480Y-85345169D01*
X111418854Y-85075795D01*
X111519869Y-85042123D01*
X111587212Y-85042123D01*
X111688228Y-85075795D01*
X111789243Y-85176810D01*
X111822915Y-85277825D01*
X111822915Y-85345169D01*
X111789243Y-85446184D01*
X111519869Y-85715558D01*
X112260648Y-84301345D02*
X112159632Y-84335016D01*
X112058617Y-84436032D01*
X111991274Y-84570719D01*
X111991274Y-84705406D01*
X112024945Y-84806421D01*
X112125961Y-84974780D01*
X112226976Y-85075795D01*
X112395335Y-85176810D01*
X112496350Y-85210482D01*
X112631037Y-85210482D01*
X112765724Y-85143138D01*
X112833067Y-85075795D01*
X112900411Y-84941108D01*
X112900411Y-84873764D01*
X112664709Y-84638062D01*
X112530022Y-84772749D01*
X107610273Y-86306276D02*
X108014334Y-85902215D01*
X108519410Y-86811352D02*
X107812303Y-86104245D01*
X108182693Y-85733856D02*
X109361204Y-85969558D01*
X108654097Y-85262451D02*
X108889800Y-86440963D01*
X109630578Y-85700184D02*
X108923471Y-84993077D01*
X109091830Y-84824719D01*
X109226517Y-84757375D01*
X109361204Y-84757375D01*
X109462219Y-84791047D01*
X109630578Y-84892062D01*
X109731593Y-84993077D01*
X109832609Y-85161436D01*
X109866280Y-85262451D01*
X109866280Y-85397138D01*
X109798937Y-85531825D01*
X109630578Y-85700184D01*
X105482898Y-85795894D02*
X105381883Y-85829566D01*
X105280868Y-85930581D01*
X105213524Y-86065268D01*
X105213524Y-86199955D01*
X105247196Y-86300970D01*
X105348211Y-86469329D01*
X105449226Y-86570344D01*
X105617585Y-86671360D01*
X105718600Y-86705031D01*
X105853287Y-86705031D01*
X105987974Y-86637688D01*
X106055318Y-86570344D01*
X106122661Y-86435657D01*
X106122661Y-86368314D01*
X105886959Y-86132612D01*
X105752272Y-86267299D01*
X106493051Y-86132612D02*
X105785944Y-85425505D01*
X106897112Y-85728551D01*
X106190005Y-85021444D01*
X107233829Y-85391833D02*
X106526722Y-84684726D01*
X106695081Y-84516368D01*
X106829768Y-84449024D01*
X106964455Y-84449024D01*
X107065470Y-84482696D01*
X107233829Y-84583711D01*
X107334844Y-84684726D01*
X107435860Y-84853085D01*
X107469531Y-84954100D01*
X107469531Y-85088787D01*
X107402188Y-85223474D01*
X107233829Y-85391833D01*
D11*
%TO.C,U1*%
X105809600Y-81203601D02*
X105809600Y-79603601D01*
X105809600Y-67003601D02*
X105809600Y-68603601D01*
X120009600Y-67003601D02*
X118409600Y-67003601D01*
X105809600Y-67003601D02*
X107409600Y-67003601D01*
X120009600Y-81203601D02*
X120009600Y-79603601D01*
X120009600Y-81203601D02*
X118409600Y-81203601D01*
D12*
X105509600Y-68903601D02*
G75*
G03*
X105509600Y-68903601I-100000J0D01*
G01*
D11*
X107409600Y-81203601D02*
X105809600Y-81203601D01*
X120009600Y-67003601D02*
X120009600Y-68603601D01*
X116211576Y-48228240D02*
X116211576Y-45688240D01*
X114179576Y-43656240D02*
X111639576Y-43656240D01*
X109607576Y-45688240D02*
X109607576Y-48228240D01*
X111639576Y-50260240D02*
X114179576Y-50260240D01*
%TO.C,J2*%
X122551500Y-89671200D02*
X122551500Y-87011200D01*
X107251500Y-89671200D02*
X122551500Y-89671200D01*
X107251500Y-87011200D02*
X122551500Y-87011200D01*
X107251500Y-89671200D02*
X107251500Y-87011200D01*
X105981500Y-89671200D02*
X104651500Y-89671200D01*
X104651500Y-89671200D02*
X104651500Y-88341200D01*
%TO.C,U1*%
D10*
X112513431Y-82168740D02*
X112513431Y-82978264D01*
X112561050Y-83073502D01*
X112608669Y-83121121D01*
X112703907Y-83168740D01*
X112894383Y-83168740D01*
X112989621Y-83121121D01*
X113037240Y-83073502D01*
X113084859Y-82978264D01*
X113084859Y-82168740D01*
X114084859Y-83168740D02*
X113513431Y-83168740D01*
X113799145Y-83168740D02*
X113799145Y-82168740D01*
X113703907Y-82311598D01*
X113608669Y-82406836D01*
X113513431Y-82454455D01*
%TD*%
M02*
